<?xml version="1.0" encoding="UTF-8" standalone="no"?>
<!DOCTYPE svg PUBLIC "-//W3C//DTD SVG 1.1//EN" "http://www.w3.org/Graphics/SVG/1.1/DTD/svg11.dtd">
<svg width="100%" height="100%" viewBox="0 0 51 51" version="1.1" xmlns="http://www.w3.org/2000/svg" xmlns:xlink="http://www.w3.org/1999/xlink" xml:space="preserve" xmlns:serif="http://www.serif.com/" style="fill-rule:evenodd;clip-rule:evenodd;">
    <g transform="matrix(0.927793,0,0,0.927793,2.00706,3.24119)">
        <g transform="matrix(0.71922,0,0,0.71922,-1.06908,-0.753762)">
            <path d="M56,48L60,48C61.104,48 62,48.896 62,50L62,56C62,57.104 61.104,58 60,58L56,58L56,48Z" style="fill:url(#_Linear1);fill-rule:nonzero;"/>
        </g>
        <g transform="matrix(0.71922,0,0,0.71922,-1.06908,-0.753762)">
            <path d="M56,36L60,36C61.104,36 62,36.896 62,38L62,44C62,45.104 61.104,46 60,46L56,46L56,36Z" style="fill:url(#_Linear2);fill-rule:nonzero;"/>
        </g>
        <g transform="matrix(0.71922,0,0,0.71922,-1.06908,-0.753762)">
            <path d="M56,24L60,24C61.104,24 62,24.896 62,26L62,32C62,33.104 61.104,34 60,34L56,34L56,24Z" style="fill:url(#_Linear3);fill-rule:nonzero;"/>
        </g>
        <g transform="matrix(0.71922,0,0,0.71922,-1.06908,-0.753762)">
            <path d="M56,12L60,12C61.104,12 62,12.896 62,14L62,20C62,21.104 61.104,22 60,22L56,22L56,12Z" style="fill:url(#_Linear4);fill-rule:nonzero;"/>
        </g>
        <g transform="matrix(0.71922,0,0,0.71922,-1.06908,-0.753762)">
            <path d="M14,48L14,60C14,62.2 15.8,64 18,64L54,64C56.2,64 58,62.2 58,60L58,48L14,48Z" style="fill:url(#_Linear5);fill-rule:nonzero;"/>
        </g>
        <g transform="matrix(0.71922,0,0,0.71922,-1.06908,-0.753762)">
            <path d="M15,60L15,49L57,49L57,60C57,61.648 55.648,63 54,63L18,63C16.352,63 15,61.648 15,60Z" style="fill:none;fill-rule:nonzero;stroke:url(#_Linear6);stroke-width:2px;"/>
        </g>
        <g transform="matrix(0.71922,0,0,0.71922,-1.06908,-0.753762)">
            <path d="M58,14L58,52C58,54.2 56.2,56 54,56L18,56C15.8,56 14,57.8 14,60L14,14C14,10.68 16.68,8 20,8L52,8C55.32,8 58,10.68 58,14Z" style="fill:url(#_Linear7);fill-rule:nonzero;"/>
        </g>
        <g transform="matrix(0.71922,0,0,0.71922,-1.06908,-0.753762)">
            <path d="M50,18L50,23C50,24.104 49.104,25 48,25L25,25C23.896,25 23,24.104 23,23L23,18C23,16.896 23.896,16 25,16L48,16C49.104,16 50,16.896 50,18Z" style="fill:white;"/>
        </g>
    </g>
    <g transform="matrix(1.02814,0,0,1.02814,0.589572,2.48467)">
        <g id="rect3417-4" transform="matrix(0.754249,0,0,0.754249,-1.32653,-4.86439)">
            <rect x="5.553" y="9.339" width="42.466" height="12.328" style="fill:rgb(26,26,26);"/>
        </g>
        <g id="rect3417" transform="matrix(0.754249,0,0,0.754249,-1.32653,-4.86439)">
            <rect x="4.267" y="7.775" width="42.466" height="12.328" style="fill:rgb(102,102,102);"/>
        </g>
        <g id="path5533" transform="matrix(0.754249,0,0,0.754249,-1.32653,-4.86439)">
            <path d="M11.371,17.012C10.931,17.012 10.524,16.947 10.151,16.818C9.78,16.688 9.461,16.494 9.194,16.238C8.926,15.981 8.718,15.66 8.57,15.276C8.424,14.892 8.351,14.448 8.351,13.945C8.351,13.476 8.422,13.051 8.562,12.67C8.702,12.289 8.906,11.961 9.174,11.689C9.431,11.426 9.748,11.224 10.127,11.081C10.509,10.938 10.924,10.866 11.375,10.866C11.624,10.866 11.847,10.881 12.046,10.91C12.247,10.936 12.433,10.972 12.602,11.017C12.78,11.068 12.94,11.124 13.083,11.188C13.229,11.249 13.356,11.306 13.464,11.359L13.464,12.793L13.29,12.793C13.215,12.73 13.121,12.654 13.007,12.567C12.896,12.479 12.769,12.393 12.626,12.308C12.48,12.224 12.323,12.152 12.153,12.094C11.984,12.036 11.802,12.006 11.609,12.006C11.395,12.006 11.191,12.041 10.997,12.11C10.804,12.176 10.625,12.287 10.461,12.443C10.305,12.594 10.178,12.794 10.08,13.043C9.984,13.292 9.936,13.594 9.936,13.949C9.936,14.32 9.988,14.63 10.091,14.879C10.197,15.128 10.33,15.324 10.489,15.467C10.65,15.612 10.83,15.717 11.029,15.781C11.228,15.842 11.424,15.872 11.617,15.872C11.802,15.872 11.985,15.844 12.165,15.789C12.348,15.733 12.516,15.657 12.67,15.562C12.8,15.485 12.92,15.403 13.031,15.316C13.143,15.228 13.234,15.153 13.305,15.089L13.464,15.089L13.464,16.504C13.316,16.57 13.174,16.632 13.039,16.69C12.904,16.749 12.762,16.799 12.614,16.841C12.421,16.897 12.239,16.939 12.07,16.969C11.9,16.998 11.667,17.012 11.371,17.012L11.371,17.012Z" style="fill:white;fill-rule:nonzero;"/>
        </g>
        <g id="path5535" transform="matrix(0.754249,0,0,0.754249,-1.32653,-4.86439)">
            <path d="M17.902,12.793C17.902,12.645 17.872,12.518 17.811,12.412C17.75,12.306 17.645,12.222 17.497,12.161C17.393,12.119 17.273,12.094 17.135,12.086C16.998,12.075 16.837,12.07 16.655,12.07L16.102,12.07L16.102,13.663L16.571,13.663C16.815,13.663 17.019,13.651 17.183,13.627C17.347,13.604 17.485,13.549 17.596,13.464C17.702,13.382 17.779,13.292 17.827,13.194C17.877,13.094 17.902,12.96 17.902,12.793L17.902,12.793ZM20.282,16.897L18.418,16.897L16.805,14.728L16.102,14.728L16.102,16.897L14.585,16.897L14.585,10.981L17.143,10.981C17.493,10.981 17.793,11.001 18.045,11.041C18.297,11.081 18.532,11.167 18.752,11.299C18.975,11.432 19.151,11.604 19.281,11.816C19.413,12.025 19.479,12.289 19.479,12.606C19.479,13.043 19.377,13.4 19.173,13.675C18.972,13.95 18.683,14.18 18.307,14.362L20.282,16.897Z" style="fill:white;fill-rule:nonzero;"/>
        </g>
        <g id="path5537" transform="matrix(0.754249,0,0,0.754249,-1.32653,-4.86439)">
            <path d="M25.228,16.897L20.949,16.897L20.949,10.981L25.228,10.981L25.228,12.126L22.467,12.126L22.467,13.147L25.029,13.147L25.029,14.291L22.467,14.291L22.467,15.753L25.228,15.753L25.228,16.897Z" style="fill:white;fill-rule:nonzero;"/>
        </g>
        <g id="path5539" transform="matrix(0.754249,0,0,0.754249,-1.32653,-4.86439)">
            <path d="M31.974,16.897L30.396,16.897L29.987,15.701L27.794,15.701L27.385,16.897L25.848,16.897L28.033,10.981L29.789,10.981L31.974,16.897ZM29.618,14.617L28.891,12.495L28.164,14.617L29.618,14.617Z" style="fill:white;fill-rule:nonzero;"/>
        </g>
        <g id="path5541" transform="matrix(0.754249,0,0,0.754249,-1.32653,-4.86439)">
            <path d="M37.452,12.126L35.605,12.126L35.605,16.897L34.079,16.897L34.079,12.126L32.232,12.126L32.232,10.981L37.452,10.981L37.452,12.126Z" style="fill:white;fill-rule:nonzero;"/>
        </g>
        <g id="path5543" transform="matrix(0.754249,0,0,0.754249,-1.32653,-4.86439)">
            <path d="M42.649,16.897L38.37,16.897L38.37,10.981L42.649,10.981L42.649,12.126L39.888,12.126L39.888,13.147L42.45,13.147L42.45,14.291L39.888,14.291L39.888,15.753L42.649,15.753L42.649,16.897Z" style="fill:white;fill-rule:nonzero;"/>
        </g>
    </g>
    <g transform="matrix(0.441371,0,0,0.441371,7.00547,19.4299)">
        <path d="M13.482,27.432L13.482,18.672L16.326,18.672C16.886,18.672 17.37,18.78 17.778,18.996C18.186,19.212 18.502,19.514 18.726,19.902C18.95,20.29 19.062,20.752 19.062,21.288C19.062,21.816 18.95,22.274 18.726,22.662C18.502,23.05 18.184,23.352 17.772,23.568C17.36,23.784 16.878,23.892 16.326,23.892L14.67,23.892L14.67,27.432L13.482,27.432ZM14.67,22.836L16.326,22.836C16.79,22.836 17.158,22.694 17.43,22.41C17.702,22.126 17.838,21.752 17.838,21.288C17.838,20.816 17.702,20.438 17.43,20.154C17.158,19.87 16.79,19.728 16.326,19.728L14.67,19.728L14.67,22.836Z" style="fill:rgb(254,255,254);"/>
        <path d="M23.226,27.528C22.418,27.528 21.776,27.296 21.3,26.832C20.824,26.368 20.586,25.72 20.586,24.888L20.586,23.376C20.586,22.544 20.824,21.896 21.3,21.432C21.776,20.968 22.418,20.736 23.226,20.736C24.034,20.736 24.676,20.968 25.152,21.432C25.628,21.896 25.866,22.544 25.866,23.376L25.866,24.888C25.866,25.72 25.628,26.368 25.152,26.832C24.676,27.296 24.034,27.528 23.226,27.528ZM23.226,26.484C23.674,26.484 24.028,26.358 24.288,26.106C24.548,25.854 24.678,25.484 24.678,24.996L24.678,23.268C24.678,22.78 24.548,22.41 24.288,22.158C24.028,21.906 23.674,21.78 23.226,21.78C22.778,21.78 22.424,21.906 22.164,22.158C21.904,22.41 21.774,22.78 21.774,23.268L21.774,24.996C21.774,25.484 21.904,25.854 22.164,26.106C22.424,26.358 22.778,26.484 23.226,26.484Z" style="fill:rgb(254,255,254);"/>
        <path d="M31.41,27.432C30.81,27.432 30.33,27.256 29.97,26.904C29.61,26.552 29.43,26.084 29.43,25.5L29.43,19.752L27.174,19.752L27.174,18.672L30.618,18.672L30.618,25.488C30.618,25.752 30.692,25.962 30.84,26.118C30.988,26.274 31.19,26.352 31.446,26.352L33.45,26.352L33.45,27.432L31.41,27.432Z" style="fill:rgb(254,255,254);"/>
        <path d="M36.126,29.592L37.086,27.036L34.626,20.832L35.886,20.832L37.374,24.732C37.438,24.9 37.502,25.08 37.566,25.272C37.63,25.464 37.674,25.632 37.698,25.776C37.722,25.632 37.762,25.464 37.818,25.272C37.874,25.08 37.934,24.9 37.998,24.732L39.378,20.832L40.638,20.832L37.362,29.592L36.126,29.592Z" style="fill:rgb(254,255,254);"/>
        <path d="M43.134,29.592L43.134,28.536L44.994,28.536C45.354,28.536 45.642,28.434 45.858,28.23C46.074,28.026 46.182,27.748 46.182,27.396L46.182,26.844L46.206,25.704L46.194,25.704C46.114,26.112 45.92,26.428 45.612,26.652C45.304,26.876 44.91,26.988 44.43,26.988C43.75,26.988 43.214,26.77 42.822,26.334C42.43,25.898 42.234,25.3 42.234,24.54L42.234,23.184C42.234,22.424 42.43,21.822 42.822,21.378C43.214,20.934 43.75,20.712 44.43,20.712C44.894,20.712 45.28,20.824 45.588,21.048C45.896,21.272 46.094,21.58 46.182,21.972L46.194,21.972L46.194,20.832L47.358,20.832L47.358,27.408C47.358,28.08 47.146,28.612 46.722,29.004C46.298,29.396 45.722,29.592 44.994,29.592L43.134,29.592ZM44.802,25.992C45.226,25.992 45.562,25.86 45.81,25.596C46.058,25.332 46.182,24.96 46.182,24.48L46.182,23.244C46.182,22.772 46.058,22.404 45.81,22.14C45.562,21.876 45.226,21.744 44.802,21.744C44.362,21.744 44.022,21.87 43.782,22.122C43.542,22.374 43.422,22.716 43.422,23.148L43.422,24.588C43.422,25.02 43.542,25.362 43.782,25.614C44.022,25.866 44.362,25.992 44.802,25.992Z" style="fill:rgb(254,255,254);"/>
        <path d="M53.01,27.432C52.41,27.432 51.93,27.256 51.57,26.904C51.21,26.552 51.03,26.084 51.03,25.5L51.03,19.752L48.774,19.752L48.774,18.672L52.218,18.672L52.218,25.488C52.218,25.752 52.292,25.962 52.44,26.118C52.588,26.274 52.79,26.352 53.046,26.352L55.05,26.352L55.05,27.432L53.01,27.432Z" style="fill:rgb(254,255,254);"/>
        <path d="M59.226,27.528C58.418,27.528 57.776,27.296 57.3,26.832C56.824,26.368 56.586,25.72 56.586,24.888L56.586,23.376C56.586,22.544 56.824,21.896 57.3,21.432C57.776,20.968 58.418,20.736 59.226,20.736C60.034,20.736 60.676,20.968 61.152,21.432C61.628,21.896 61.866,22.544 61.866,23.376L61.866,24.888C61.866,25.72 61.628,26.368 61.152,26.832C60.676,27.296 60.034,27.528 59.226,27.528ZM59.226,26.484C59.674,26.484 60.028,26.358 60.288,26.106C60.548,25.854 60.678,25.484 60.678,24.996L60.678,23.268C60.678,22.78 60.548,22.41 60.288,22.158C60.028,21.906 59.674,21.78 59.226,21.78C58.778,21.78 58.424,21.906 58.164,22.158C57.904,22.41 57.774,22.78 57.774,23.268L57.774,24.996C57.774,25.484 57.904,25.854 58.164,26.106C58.424,26.358 58.778,26.484 59.226,26.484Z" style="fill:rgb(254,255,254);"/>
        <path d="M67.086,27.432C66.518,27.432 66.068,27.268 65.736,26.94C65.404,26.612 65.238,26.176 65.238,25.632L65.238,21.912L63.354,21.912L63.354,20.832L65.238,20.832L65.238,18.972L66.426,18.972L66.426,20.832L69.102,20.832L69.102,21.912L66.426,21.912L66.426,25.62C66.426,25.836 66.488,26.012 66.612,26.148C66.736,26.284 66.902,26.352 67.11,26.352L69.042,26.352L69.042,27.432L67.086,27.432Z" style="fill:rgb(254,255,254);"/>
    </g>
    <defs>
        <linearGradient id="_Linear1" x1="0" y1="0" x2="1" y2="0" gradientUnits="userSpaceOnUse" gradientTransform="matrix(-4,4.89859e-16,-4.89859e-16,-4,60,52.5)"><stop offset="0" style="stop-color:rgb(0,120,212);stop-opacity:1"/><stop offset="1" style="stop-color:rgb(0,80,172);stop-opacity:1"/></linearGradient>
        <linearGradient id="_Linear2" x1="0" y1="0" x2="1" y2="0" gradientUnits="userSpaceOnUse" gradientTransform="matrix(-4,4.89859e-16,-4.89859e-16,-4,60,41)"><stop offset="0" style="stop-color:rgb(16,124,16);stop-opacity:1"/><stop offset="1" style="stop-color:rgb(0,84,0);stop-opacity:1"/></linearGradient>
        <linearGradient id="_Linear3" x1="0" y1="0" x2="1" y2="0" gradientUnits="userSpaceOnUse" gradientTransform="matrix(-4,4.89859e-16,-4.89859e-16,-4,60,28.5)"><stop offset="0" style="stop-color:rgb(226,90,1);stop-opacity:1"/><stop offset="1" style="stop-color:rgb(186,50,0);stop-opacity:1"/></linearGradient>
        <linearGradient id="_Linear4" x1="0" y1="0" x2="1" y2="0" gradientUnits="userSpaceOnUse" gradientTransform="matrix(-4,4.89859e-16,-4.89859e-16,-4,60,17)"><stop offset="0" style="stop-color:rgb(215,10,10);stop-opacity:1"/><stop offset="0.73" style="stop-color:rgb(165,0,0);stop-opacity:1"/><stop offset="1" style="stop-color:rgb(165,0,0);stop-opacity:1"/></linearGradient>
        <linearGradient id="_Linear5" x1="0" y1="0" x2="1" y2="0" gradientUnits="userSpaceOnUse" gradientTransform="matrix(-6.6293,3.0391,-3.0391,-6.6293,48,48)"><stop offset="0" style="stop-color:rgb(215,212,212);stop-opacity:1"/><stop offset="1" style="stop-color:rgb(234,232,232);stop-opacity:1"/></linearGradient>
        <linearGradient id="_Linear6" x1="0" y1="0" x2="1" y2="0" gradientUnits="userSpaceOnUse" gradientTransform="matrix(9.79717e-16,16,-16,9.79717e-16,36,48)"><stop offset="0" style="stop-color:black;stop-opacity:0.35"/><stop offset="1" style="stop-color:black;stop-opacity:0.3"/></linearGradient>
        <linearGradient id="_Linear7" x1="0" y1="0" x2="1" y2="0" gradientUnits="userSpaceOnUse" gradientTransform="matrix(44,61.5,-61.5,44,14,3.5)"><stop offset="0" style="stop-color:rgb(163,92,255);stop-opacity:1"/><stop offset="1" style="stop-color:rgb(73,49,222);stop-opacity:1"/></linearGradient>
    </defs>
</svg>
